<?xml version="1.0" encoding="UTF-8"?>
<!DOCTYPE svg PUBLIC "-//W3C//DTD SVG 1.1//EN" "http://www.w3.org/Graphics/SVG/1.1/DTD/svg11.dtd">
<svg xmlns="http://www.w3.org/2000/svg" version="1.1" width="256px" height="256px"
     style="shape-rendering:geometricPrecision; text-rendering:geometricPrecision; image-rendering:optimizeQuality; fill-rule:evenodd; clip-rule:evenodd">
    <g>
        <path style="opacity:1" fill="#FFFFFF"
              d="M 201.5,96.5 C 188.167,96.5 174.833,96.5 161.5,96.5C 149.814,84.406 138.147,72.406 126.5,60.5C 105.109,81.8892 84.1091,103.556 63.5,125.5C 84.1366,147.471 105.137,169.137 126.5,190.5C 137.904,178.595 149.571,166.761 161.5,155C 149.833,154.667 138.167,154.333 126.5,154C 116.615,144.635 107.615,135.135 99.5,125.5C 142.833,125.5 186.167,125.5 229.5,125.5C 195.859,161.474 161.526,196.808 126.5,231.5C 92.3421,196.542 58.1754,161.542 24,126.5C 23.3333,125.833 23.3333,125.167 24,124.5C 57.7079,89.1147 91.8746,54.1147 126.5,19.5C 151.884,44.883 176.884,70.5496 201.5,96.5 Z"/>
    </g>
    <g>
        <path style="opacity:1" fill="#f19214"
              d="M 161.5,96.5 C 174.833,96.5 188.167,96.5 201.5,96.5C 209.472,104.807 217.472,113.14 225.5,121.5C 225.586,122.496 225.252,123.329 224.5,124C 184.167,124.667 143.833,124.667 103.5,124C 102.748,123.329 102.414,122.496 102.5,121.5C 110.298,113.202 118.298,105.035 126.5,97C 138.162,96.5001 149.829,96.3335 161.5,96.5 Z"/>
    </g>
    <g>
        <path style="opacity:1" fill="#f19214"
              d="M 102.5,121.5 C 102.414,122.496 102.748,123.329 103.5,124C 143.833,124.667 184.167,124.667 224.5,124C 225.252,123.329 225.586,122.496 225.5,121.5C 227.167,122.5 228.5,123.833 229.5,125.5C 186.167,125.5 142.833,125.5 99.5,125.5C 99.7376,123.596 100.738,122.262 102.5,121.5 Z"/>
    </g>
</svg>
