<?xml version="1.0" standalone="no"?>
<!DOCTYPE svg PUBLIC "-//W3C//DTD SVG 20010904//EN"
        "http://www.w3.org/TR/2001/REC-SVG-20010904/DTD/svg10.dtd">
<svg version="1.0" xmlns="http://www.w3.org/2000/svg"
     width="100.000000pt" height="100.000000pt" viewBox="0 0 100.000000 100.000000"
     preserveAspectRatio="xMidYMid meet">

    <g transform="translate(0.000000,100.000000) scale(0.100000,-0.100000)"
       fill="#FFEFFF" stroke="#FFEFFF">
        <path d="M386 944 c-224 -54 -376 -287 -338 -516 62 -368 512 -515 773 -253
329 330 18 879 -435 769z m219 -39 c312 -81 418 -473 191 -701 -241 -240 -651
-107 -709 230 -50 295 226 546 518 471z"/>
        <path d="M420 658 c-132 -67 -132 -249 0 -315 56 -29 104 -29 160 -1 132 67
132 249 0 316 -24 12 -60 22 -80 22 -20 0 -56 -10 -80 -22z m148 -38 c42 -26
72 -76 72 -120 0 -44 -30 -94 -72 -120 -117 -71 -259 71 -188 188 42 68 124
91 188 52z"/>
    </g>
</svg>
